<svg width="21" height="17" viewBox="0 0 21 17" fill="none" xmlns="http://www.w3.org/2000/svg">
<path fill-rule="evenodd" clip-rule="evenodd" d="M12.8867 9.559L12.926 9.40168L14.0665 12.9019L13.9289 13.0986L13.9289 13.0789L13.8896 13.1576C10.6056 17.523 3.64449 16.6775 1.06847 12.2333C-1.66486 7.51392 1.1078 1.28035 6.45648 0.159486C7.00708 0.0611648 7.57734 0.00217245 8.1476 0.00217245C10.6843 0.00217245 13.3586 1.10337 14.7155 3.32543L15.7773 0.434786L19.0809 0.434786L16.5836 7.37627L18.196 11.8597C18.373 12.312 18.8646 12.5676 19.3169 12.4496L19.4546 12.4103L20.3394 15.3796L19.2776 15.6549C17.7634 16.0285 16.2099 15.2616 15.6397 13.8065C15.502 13.5508 15.3644 13.2755 15.2661 12.9806L14.6761 11.4271L14.6368 11.3681L14.6368 11.3484L13.3193 7.3566C12.5917 5.15421 11.2349 4.09234 10.1534 3.65972C9.56343 3.38442 8.89485 3.24677 8.18693 3.24677C5.4536 3.24677 3.25121 5.42951 3.25121 8.10384C3.25121 10.7782 5.4536 12.9609 8.18693 12.9609C10.3893 12.9609 12.2574 11.5254 12.8867 9.559Z" fill="url(#paint0_linear_10_289)"/>
<defs>
<linearGradient id="paint0_linear_10_289" x1="0.0262678" y1="0.226346" x2="19.6905" y2="0.226346" gradientUnits="userSpaceOnUse">
<stop stop-color="#7A5FFF"/>
<stop offset="1" stop-color="#00E824"/>
</linearGradient>
</defs>
</svg>
