<svg width="281" height="25" viewBox="0 0 281 25" fill="none" xmlns="http://www.w3.org/2000/svg">
<path d="M23.0667 18.5L18.8667 14.3C18.5333 14.5667 18.15 14.7778 17.7167 14.9333C17.2833 15.0889 16.8222 15.1667 16.3333 15.1667C15.1222 15.1667 14.0973 14.7471 13.2587 13.908C12.42 13.0689 12.0004 12.044 12 10.8333C12 9.62222 12.4196 8.59733 13.2587 7.75867C14.0978 6.92 15.1227 6.50044 16.3333 6.5C17.5444 6.5 18.5693 6.91956 19.408 7.75867C20.2467 8.59778 20.6662 9.62267 20.6667 10.8333C20.6667 11.3222 20.5889 11.7833 20.4333 12.2167C20.2778 12.65 20.0667 13.0333 19.8 13.3667L24 17.5667L23.0667 18.5ZM16.3333 13.8333C17.1667 13.8333 17.8751 13.5416 18.4587 12.958C19.0422 12.3744 19.3338 11.6662 19.3333 10.8333C19.3333 10 19.0416 9.29156 18.458 8.708C17.8744 8.12444 17.1662 7.83289 16.3333 7.83333C15.5 7.83333 14.7916 8.12511 14.208 8.70867C13.6244 9.29222 13.3329 10.0004 13.3333 10.8333C13.3333 11.6667 13.6251 12.3751 14.2087 12.9587C14.7922 13.5422 15.5004 13.8338 16.3333 13.8333Z" fill="white"/>
</svg>
